<mxfile host="drawio.corp.amazon.com" modified="2024-10-09T12:24:53.837Z" agent="Mozilla/5.0 (Macintosh; Intel Mac OS X 10.15; rv:130.0) Gecko/20100101 Firefox/130.0" etag="__ZPa1MHElksJ8eFPFLn" version="21.7.4" type="device">
  <diagram name="Page-1" id="gzXMicq8n98t5GoPkyOo">
    <mxGraphModel dx="954" dy="643" grid="1" gridSize="10" guides="1" tooltips="1" connect="1" arrows="1" fold="1" page="1" pageScale="1" pageWidth="1654" pageHeight="1169" math="0" shadow="0">
      <root>
        <mxCell id="0" />
        <mxCell id="1" parent="0" />
        <mxCell id="i3uYg86kWJ5RToKswzhy-5" value="colo / dc /&#xa;on-premises" style="sketch=0;points=[[0,0,0],[0.25,0,0],[0.5,0,0],[0.75,0,0],[1,0,0],[1,0.25,0],[1,0.5,0],[1,0.75,0],[1,1,0],[0.75,1,0],[0.5,1,0],[0.25,1,0],[0,1,0],[0,0.75,0],[0,0.5,0],[0,0.25,0]];rounded=1;absoluteArcSize=1;arcSize=2;html=1;strokeColor=none;gradientColor=none;shadow=0;dashed=0;fontSize=12;fontColor=#9E9E9E;align=left;verticalAlign=top;spacing=10;spacingTop=-4;whiteSpace=wrap;fillColor=#EFEBE9;" vertex="1" parent="1">
          <mxGeometry x="360" y="385" width="240" height="200" as="geometry" />
        </mxCell>
        <mxCell id="i3uYg86kWJ5RToKswzhy-6" value="colo / dc /&#xa;on-premises" style="sketch=0;points=[[0,0,0],[0.25,0,0],[0.5,0,0],[0.75,0,0],[1,0,0],[1,0.25,0],[1,0.5,0],[1,0.75,0],[1,1,0],[0.75,1,0],[0.5,1,0],[0.25,1,0],[0,1,0],[0,0.75,0],[0,0.5,0],[0,0.25,0]];rounded=1;absoluteArcSize=1;arcSize=2;html=1;strokeColor=none;gradientColor=none;shadow=0;dashed=0;fontSize=12;fontColor=#9E9E9E;align=left;verticalAlign=top;spacing=10;spacingTop=-4;whiteSpace=wrap;fillColor=#EFEBE9;" vertex="1" parent="1">
          <mxGeometry x="640" y="385" width="240" height="200" as="geometry" />
        </mxCell>
        <mxCell id="i3uYg86kWJ5RToKswzhy-7" value="Region" style="sketch=0;outlineConnect=0;gradientColor=none;html=1;whiteSpace=wrap;fontSize=12;fontStyle=0;shape=mxgraph.aws4.group;grIcon=mxgraph.aws4.group_region;strokeColor=#879196;fillColor=none;verticalAlign=top;align=left;spacingLeft=30;fontColor=#879196;dashed=1;" vertex="1" parent="1">
          <mxGeometry x="80" y="385" width="200" height="200" as="geometry" />
        </mxCell>
        <mxCell id="i3uYg86kWJ5RToKswzhy-8" value="1.1.1.1" style="rounded=0;whiteSpace=wrap;html=1;" vertex="1" parent="1">
          <mxGeometry x="430" y="455" width="120" height="60" as="geometry" />
        </mxCell>
        <mxCell id="i3uYg86kWJ5RToKswzhy-9" value="2.2.2.2" style="rounded=0;whiteSpace=wrap;html=1;" vertex="1" parent="1">
          <mxGeometry x="700" y="455" width="120" height="60" as="geometry" />
        </mxCell>
        <mxCell id="i3uYg86kWJ5RToKswzhy-10" value="" style="sketch=0;points=[[0,0,0],[0.25,0,0],[0.5,0,0],[0.75,0,0],[1,0,0],[0,1,0],[0.25,1,0],[0.5,1,0],[0.75,1,0],[1,1,0],[0,0.25,0],[0,0.5,0],[0,0.75,0],[1,0.25,0],[1,0.5,0],[1,0.75,0]];outlineConnect=0;fontColor=#232F3E;fillColor=#8C4FFF;strokeColor=#ffffff;dashed=0;verticalLabelPosition=bottom;verticalAlign=top;align=center;html=1;fontSize=12;fontStyle=0;aspect=fixed;shape=mxgraph.aws4.resourceIcon;resIcon=mxgraph.aws4.route_53;" vertex="1" parent="1">
          <mxGeometry x="401" y="20" width="78" height="78" as="geometry" />
        </mxCell>
        <mxCell id="i3uYg86kWJ5RToKswzhy-18" style="edgeStyle=orthogonalEdgeStyle;rounded=0;orthogonalLoop=1;jettySize=auto;html=1;" edge="1" parent="1" source="i3uYg86kWJ5RToKswzhy-11" target="i3uYg86kWJ5RToKswzhy-12">
          <mxGeometry relative="1" as="geometry" />
        </mxCell>
        <mxCell id="i3uYg86kWJ5RToKswzhy-22" value="Primary&lt;br&gt;HealthCheckOnprem" style="edgeLabel;html=1;align=center;verticalAlign=middle;resizable=0;points=[];" vertex="1" connectable="0" parent="i3uYg86kWJ5RToKswzhy-18">
          <mxGeometry x="-0.2828" y="1" relative="1" as="geometry">
            <mxPoint as="offset" />
          </mxGeometry>
        </mxCell>
        <mxCell id="i3uYg86kWJ5RToKswzhy-19" style="edgeStyle=orthogonalEdgeStyle;rounded=0;orthogonalLoop=1;jettySize=auto;html=1;" edge="1" parent="1" source="i3uYg86kWJ5RToKswzhy-11" target="i3uYg86kWJ5RToKswzhy-17">
          <mxGeometry relative="1" as="geometry" />
        </mxCell>
        <mxCell id="i3uYg86kWJ5RToKswzhy-23" value="Secondary" style="edgeLabel;html=1;align=center;verticalAlign=middle;resizable=0;points=[];" vertex="1" connectable="0" parent="i3uYg86kWJ5RToKswzhy-19">
          <mxGeometry x="-0.1758" y="2" relative="1" as="geometry">
            <mxPoint as="offset" />
          </mxGeometry>
        </mxCell>
        <mxCell id="i3uYg86kWJ5RToKswzhy-11" value="www.monservice.com" style="sketch=0;outlineConnect=0;fontColor=#232F3E;gradientColor=none;fillColor=#8C4FFF;strokeColor=none;dashed=0;verticalLabelPosition=bottom;verticalAlign=top;align=center;html=1;fontSize=12;fontStyle=0;aspect=fixed;pointerEvents=1;shape=mxgraph.aws4.route_53_resolver;" vertex="1" parent="1">
          <mxGeometry x="440" y="110" width="52" height="52" as="geometry" />
        </mxCell>
        <mxCell id="i3uYg86kWJ5RToKswzhy-13" style="edgeStyle=orthogonalEdgeStyle;rounded=0;orthogonalLoop=1;jettySize=auto;html=1;" edge="1" parent="1" source="i3uYg86kWJ5RToKswzhy-12" target="i3uYg86kWJ5RToKswzhy-8">
          <mxGeometry relative="1" as="geometry" />
        </mxCell>
        <mxCell id="i3uYg86kWJ5RToKswzhy-15" value="Weight 50&lt;br&gt;HealthCheck1" style="edgeLabel;html=1;align=center;verticalAlign=middle;resizable=0;points=[];" vertex="1" connectable="0" parent="i3uYg86kWJ5RToKswzhy-13">
          <mxGeometry x="0.1223" y="2" relative="1" as="geometry">
            <mxPoint as="offset" />
          </mxGeometry>
        </mxCell>
        <mxCell id="i3uYg86kWJ5RToKswzhy-14" style="edgeStyle=orthogonalEdgeStyle;rounded=0;orthogonalLoop=1;jettySize=auto;html=1;" edge="1" parent="1" source="i3uYg86kWJ5RToKswzhy-12" target="i3uYg86kWJ5RToKswzhy-9">
          <mxGeometry relative="1" as="geometry" />
        </mxCell>
        <mxCell id="i3uYg86kWJ5RToKswzhy-16" value="Weight 50&lt;br&gt;HealthCheck2" style="edgeLabel;html=1;align=center;verticalAlign=middle;resizable=0;points=[];" vertex="1" connectable="0" parent="i3uYg86kWJ5RToKswzhy-14">
          <mxGeometry x="0.1513" y="5" relative="1" as="geometry">
            <mxPoint as="offset" />
          </mxGeometry>
        </mxCell>
        <mxCell id="i3uYg86kWJ5RToKswzhy-12" value="onprem.monservice.com&lt;br&gt;" style="sketch=0;outlineConnect=0;fontColor=#232F3E;gradientColor=none;fillColor=#8C4FFF;strokeColor=none;dashed=0;verticalLabelPosition=bottom;verticalAlign=top;align=center;html=1;fontSize=12;fontStyle=0;aspect=fixed;pointerEvents=1;shape=mxgraph.aws4.route_53_resolver;" vertex="1" parent="1">
          <mxGeometry x="590" y="210" width="52" height="52" as="geometry" />
        </mxCell>
        <mxCell id="i3uYg86kWJ5RToKswzhy-21" style="edgeStyle=orthogonalEdgeStyle;rounded=0;orthogonalLoop=1;jettySize=auto;html=1;" edge="1" parent="1" source="i3uYg86kWJ5RToKswzhy-17" target="i3uYg86kWJ5RToKswzhy-20">
          <mxGeometry relative="1" as="geometry" />
        </mxCell>
        <mxCell id="i3uYg86kWJ5RToKswzhy-17" value="dr.monservice.com" style="sketch=0;outlineConnect=0;fontColor=#232F3E;gradientColor=none;fillColor=#8C4FFF;strokeColor=none;dashed=0;verticalLabelPosition=bottom;verticalAlign=top;align=center;html=1;fontSize=12;fontStyle=0;aspect=fixed;pointerEvents=1;shape=mxgraph.aws4.route_53_resolver;" vertex="1" parent="1">
          <mxGeometry x="154" y="240" width="52" height="52" as="geometry" />
        </mxCell>
        <mxCell id="i3uYg86kWJ5RToKswzhy-20" value="3.3.3.3" style="rounded=0;whiteSpace=wrap;html=1;" vertex="1" parent="1">
          <mxGeometry x="120" y="455" width="120" height="60" as="geometry" />
        </mxCell>
        <mxCell id="i3uYg86kWJ5RToKswzhy-28" style="edgeStyle=orthogonalEdgeStyle;rounded=0;orthogonalLoop=1;jettySize=auto;html=1;entryX=0.495;entryY=0.21;entryDx=0;entryDy=0;entryPerimeter=0;" edge="1" parent="1" source="i3uYg86kWJ5RToKswzhy-24" target="i3uYg86kWJ5RToKswzhy-25">
          <mxGeometry relative="1" as="geometry" />
        </mxCell>
        <mxCell id="i3uYg86kWJ5RToKswzhy-29" style="edgeStyle=orthogonalEdgeStyle;rounded=0;orthogonalLoop=1;jettySize=auto;html=1;entryX=0.495;entryY=0.21;entryDx=0;entryDy=0;entryPerimeter=0;" edge="1" parent="1" source="i3uYg86kWJ5RToKswzhy-24" target="i3uYg86kWJ5RToKswzhy-27">
          <mxGeometry relative="1" as="geometry" />
        </mxCell>
        <mxCell id="i3uYg86kWJ5RToKswzhy-24" value="HealthCheckOnprem&lt;br&gt;Healthy if at least 1" style="shape=mxgraph.signs.healthcare.cardiology;html=1;pointerEvents=1;fillColor=#000000;strokeColor=none;verticalLabelPosition=bottom;verticalAlign=top;align=center;" vertex="1" parent="1">
          <mxGeometry x="730" y="37.75" width="48" height="42.5" as="geometry" />
        </mxCell>
        <mxCell id="i3uYg86kWJ5RToKswzhy-25" value="HealthCheck1" style="shape=mxgraph.signs.healthcare.cardiology;html=1;pointerEvents=1;fillColor=#000000;strokeColor=none;verticalLabelPosition=bottom;verticalAlign=top;align=center;" vertex="1" parent="1">
          <mxGeometry x="520" y="330" width="48" height="42.5" as="geometry" />
        </mxCell>
        <mxCell id="i3uYg86kWJ5RToKswzhy-26" style="edgeStyle=orthogonalEdgeStyle;rounded=0;orthogonalLoop=1;jettySize=auto;html=1;exitX=0.77;exitY=0.77;exitDx=0;exitDy=0;exitPerimeter=0;entryX=0.495;entryY=1;entryDx=0;entryDy=0;entryPerimeter=0;" edge="1" parent="1" source="i3uYg86kWJ5RToKswzhy-25" target="i3uYg86kWJ5RToKswzhy-25">
          <mxGeometry relative="1" as="geometry" />
        </mxCell>
        <mxCell id="i3uYg86kWJ5RToKswzhy-27" value="HealthCheck2" style="shape=mxgraph.signs.healthcare.cardiology;html=1;pointerEvents=1;fillColor=#000000;strokeColor=none;verticalLabelPosition=bottom;verticalAlign=top;align=center;" vertex="1" parent="1">
          <mxGeometry x="810" y="330" width="48" height="42.5" as="geometry" />
        </mxCell>
      </root>
    </mxGraphModel>
  </diagram>
</mxfile>
